<svg width="24" height="24" viewBox="0 0 24 24" fill="none" xmlns="http://www.w3.org/2000/svg">
<path d="M7 10V18C7 18.5304 7.21071 19.0391 7.58579 19.4142C7.96086 19.7893 8.46957 20 9 20H18C18.8 20 19.5 19.4 19.7 18.7L21.7 11.7C21.9 11.2 21.9 10.6 21.7 10.1C21.5 9.6 21 9.2 20.4 9.1L15 9V6C15 5.46957 14.7893 4.96086 14.4142 4.58579C14.0391 4.21071 13.5304 4 13 4C12.4696 4 11.9609 4.21071 11.5858 4.58579C11.2107 4.96086 11 5.46957 11 6V9L8.3 11.7C7.9 12.1 7.7 12.6 7.7 13.1V13C7.7 12.4 7.5 11.9 7.1 11.5L7 10Z" fill="white" stroke="white" stroke-width="1" stroke-linecap="round" stroke-linejoin="round"/>
<path d="M3 10V18C3 18.5304 3.21071 19.0391 3.58579 19.4142C3.96086 19.7893 4.46957 20 5 20H6C6.53043 20 7.03914 19.7893 7.41421 19.4142C7.78929 19.0391 8 18.5304 8 18V10C8 9.46957 7.78929 8.96086 7.41421 8.58579C7.03914 8.21071 6.53043 8 6 8H5C4.46957 8 3.96086 8.21071 3.58579 8.58579C3.21071 8.96086 3 9.46957 3 10Z" fill="white" stroke="white" stroke-width="1" stroke-linecap="round" stroke-linejoin="round"/>
</svg>
